<?xml version="1.0" encoding="UTF-8"?>
<svg version="1.1" xmlns="http://www.w3.org/2000/svg" width="128" height="128">
<path d="M0 0 C42.24 0 84.48 0 128 0 C128 42.24 128 84.48 128 128 C85.76 128 43.52 128 0 128 C0 85.76 0 43.52 0 0 Z " fill="#355570" transform="translate(0,0)"/>
<path d="M0 0 C2.76412113 2.09403116 3.75442325 4.39557734 5.0625 7.5625 C7.0425 7.5625 9.0225 7.5625 11.0625 7.5625 C11.619375 6.428125 12.17625 5.29375 12.75 4.125 C14.0243408 1.5291206 14.59230416 0.73340736 17.3515625 -0.26953125 C20.59688249 -0.47061015 22.71411262 0.16938279 25.75 1.3125 C26.70261719 1.65796875 27.65523438 2.0034375 28.63671875 2.359375 C31.0625 3.5625 31.0625 3.5625 33.0625 6.5625 C33.1171875 8.71875 33.1171875 8.71875 32.9375 11.0625 C32.78700129 14.70853005 32.78700129 14.70853005 34.8125 17.6875 C37.44843749 18.7125868 38.46990597 18.59953761 41.0625 17.5625 C42.0525 17.0675 42.0525 17.0675 43.0625 16.5625 C45.9140625 16.2109375 45.9140625 16.2109375 49.0625 16.5625 C51.3984375 18.5390625 51.3984375 18.5390625 53.4375 21.1875 C54.12585938 22.04601562 54.81421875 22.90453125 55.5234375 23.7890625 C57.36519779 27.10797064 57.66137106 28.82201029 57.0625 32.5625 C56.40306396 33.28074951 55.74362793 33.99899902 55.06420898 34.73901367 C52.47906967 38.38545057 52.51116876 41.409501 52.55859375 45.71484375 C52.54917252 46.49259659 52.53975128 47.27034943 52.53004456 48.07167053 C52.50146623 50.54805032 52.49831315 53.02346894 52.5 55.5 C52.496383 57.97281998 52.48674497 60.44494238 52.45924377 62.9176178 C52.44256093 64.45239014 52.43949638 65.98739155 52.45225525 67.52220154 C52.39505271 73.37389194 50.98674129 77.35099978 47.15234375 81.7578125 C41.82667387 86.53255102 36.94190382 89.56389644 30.0625 91.5625 C29.30195312 91.78679687 28.54140625 92.01109375 27.7578125 92.2421875 C11.25614633 96.09081891 -9.73411214 95.22646173 -24.74609375 87.015625 C-30.06798506 83.48667033 -33.95305438 79.70158597 -35.9375 73.5625 C-36.1230162 70.88528486 -36.21463762 68.30452231 -36.2109375 65.62890625 C-36.2312237 64.07746671 -36.25207443 62.52603446 -36.2734375 60.97460938 C-36.29602475 58.54770717 -36.31250941 56.1210943 -36.31835938 53.6940918 C-36.32791646 51.33850857 -36.36172199 48.98420138 -36.3984375 46.62890625 C-36.39339203 45.90997696 -36.38834656 45.19104767 -36.38314819 44.45033264 C-36.4826408 39.31838026 -37.95265342 36.64115175 -40.9375 32.5625 C-41.27647016 26.57402712 -38.53003019 22.77419456 -34.84765625 18.328125 C-32.9375 16.5625 -32.9375 16.5625 -29.6875 15.875 C-26.9375 16.5625 -26.9375 16.5625 -23.9375 18.5625 C-20.90297627 18.18318453 -19.56188979 17.31209319 -16.9375 15.5625 C-16.72483898 13.4834052 -16.72483898 13.4834052 -17 11.1875 C-17.10425409 6.85052979 -17.10425409 6.85052979 -15.5625 4.1875 C-10.83302937 1.25973247 -5.59415376 -0.83317184 0 0 Z " fill="#498DBF" transform="translate(55.9375,17.4375)"/>
<path d="M0 0 C2.76412113 2.09403116 3.75442325 4.39557734 5.0625 7.5625 C7.0425 7.5625 9.0225 7.5625 11.0625 7.5625 C11.619375 6.428125 12.17625 5.29375 12.75 4.125 C14.0243408 1.5291206 14.59230416 0.73340736 17.3515625 -0.26953125 C20.59688249 -0.47061015 22.71411262 0.16938279 25.75 1.3125 C26.70261719 1.65796875 27.65523438 2.0034375 28.63671875 2.359375 C31.0625 3.5625 31.0625 3.5625 33.0625 6.5625 C33.1171875 8.71875 33.1171875 8.71875 32.9375 11.0625 C32.78700129 14.70853005 32.78700129 14.70853005 34.8125 17.6875 C37.44843749 18.7125868 38.46990597 18.59953761 41.0625 17.5625 C42.0525 17.0675 42.0525 17.0675 43.0625 16.5625 C45.9140625 16.2109375 45.9140625 16.2109375 49.0625 16.5625 C51.3984375 18.5390625 51.3984375 18.5390625 53.4375 21.1875 C54.12585938 22.04601562 54.81421875 22.90453125 55.5234375 23.7890625 C57.36519779 27.10797064 57.66137106 28.82201029 57.0625 32.5625 C56.40306396 33.28074951 55.74362793 33.99899902 55.06420898 34.73901367 C52.47906967 38.38545057 52.51116876 41.409501 52.55859375 45.71484375 C52.54917252 46.49259659 52.53975128 47.27034943 52.53004456 48.07167053 C52.50146623 50.54805032 52.49831315 53.02346894 52.5 55.5 C52.496383 57.97281998 52.48674497 60.44494238 52.45924377 62.9176178 C52.44256093 64.45239014 52.43949638 65.98739155 52.45225525 67.52220154 C52.39505271 73.37389194 50.98674129 77.35099978 47.15234375 81.7578125 C41.82667387 86.53255102 36.94190382 89.56389644 30.0625 91.5625 C29.30195312 91.78679687 28.54140625 92.01109375 27.7578125 92.2421875 C11.25614633 96.09081891 -9.73411214 95.22646173 -24.74609375 87.015625 C-30.06798506 83.48667033 -33.95305438 79.70158597 -35.9375 73.5625 C-36.1230162 70.88528486 -36.21463762 68.30452231 -36.2109375 65.62890625 C-36.2312237 64.07746671 -36.25207443 62.52603446 -36.2734375 60.97460938 C-36.29602475 58.54770717 -36.31250941 56.1210943 -36.31835938 53.6940918 C-36.32791646 51.33850857 -36.36172199 48.98420138 -36.3984375 46.62890625 C-36.39339203 45.90997696 -36.38834656 45.19104767 -36.38314819 44.45033264 C-36.4826408 39.31838026 -37.95265342 36.64115175 -40.9375 32.5625 C-41.27647016 26.57402712 -38.53003019 22.77419456 -34.84765625 18.328125 C-32.9375 16.5625 -32.9375 16.5625 -29.6875 15.875 C-26.9375 16.5625 -26.9375 16.5625 -23.9375 18.5625 C-20.90297627 18.18318453 -19.56188979 17.31209319 -16.9375 15.5625 C-16.72483898 13.4834052 -16.72483898 13.4834052 -17 11.1875 C-17.10425409 6.85052979 -17.10425409 6.85052979 -15.5625 4.1875 C-10.83302937 1.25973247 -5.59415376 -0.83317184 0 0 Z M-9.125 4.5625 C-11.5071875 5.5525 -11.5071875 5.5525 -13.9375 6.5625 C-13.6075 10.1925 -13.2775 13.8225 -12.9375 17.5625 C-14.5875 18.2225 -16.2375 18.8825 -17.9375 19.5625 C-19.71027259 21.08257842 -19.71027259 21.08257842 -20.9375 22.5625 C-21.659375 22.253125 -22.38125 21.94375 -23.125 21.625 C-25.74542695 20.63506093 -28.19299499 20.07450009 -30.9375 19.5625 C-32.14300294 20.77401542 -33.32642747 22.00752889 -34.5 23.25 C-35.16128906 23.93449219 -35.82257812 24.61898437 -36.50390625 25.32421875 C-38.18131089 27.47370354 -38.18131089 27.47370354 -37.83984375 30.08203125 C-37.09078496 32.59523839 -37.09078496 32.59523839 -35.41308594 34.33764648 C-33.49927068 37.22325179 -33.51020995 39.19593391 -33.42578125 42.640625 C-33.39033203 43.80078125 -33.35488281 44.9609375 -33.31835938 46.15625 C-33.29580078 47.3628125 -33.27324219 48.569375 -33.25 49.8125 C-33.21583984 51.03453125 -33.18167969 52.2565625 -33.14648438 53.515625 C-33.0640347 56.53092746 -32.99909029 59.54669936 -32.9375 62.5625 C-27.6575 63.2225 -22.3775 63.8825 -16.9375 64.5625 C-16.6075 67.2025 -16.2775 69.8425 -15.9375 72.5625 C-11.3175 72.5625 -6.6975 72.5625 -1.9375 72.5625 C-1.6075 70.5825 -1.2775 68.6025 -0.9375 66.5625 C5.0025 66.5625 10.9425 66.5625 17.0625 66.5625 C17.3925 68.5425 17.7225 70.5225 18.0625 72.5625 C22.6825 72.5625 27.3025 72.5625 32.0625 72.5625 C32.3925 69.9225 32.7225 67.2825 33.0625 64.5625 C40.9825 63.5725 40.9825 63.5725 49.0625 62.5625 C49.08828125 60.74363281 49.1140625 58.92476562 49.140625 57.05078125 C49.1969062 54.65883018 49.25425353 52.26690402 49.3125 49.875 C49.32667969 48.67681641 49.34085937 47.47863281 49.35546875 46.24414062 C49.38769531 45.08720703 49.41992188 43.93027344 49.453125 42.73828125 C49.47407227 41.67520752 49.49501953 40.61213379 49.51660156 39.5168457 C50.18070131 35.92280677 51.69409004 34.28288362 54.0625 31.5625 C54.26882772 27.64227327 52.42680841 25.61490208 50 22.75 C49.02977525 21.67932846 48.05343014 20.61403748 47.0625 19.5625 C43.50469804 20.17240891 40.3796411 21.1408681 37.0625 22.5625 C35.56510417 21.26041667 34.06770833 19.95833333 32.5703125 18.65625 C31.10313579 17.36677542 31.10313579 17.36677542 29.0625 17.5625 C29.3925 13.9325 29.7225 10.3025 30.0625 6.5625 C28.474375 5.9025 26.88625 5.2425 25.25 4.5625 C24.35667969 4.19125 23.46335938 3.82 22.54296875 3.4375 C20.0293567 2.39616763 20.0293567 2.39616763 17.0625 2.5625 C15.7425 5.2025 14.4225 7.8425 13.0625 10.5625 C9.7625 10.5625 6.4625 10.5625 3.0625 10.5625 C1.7425 7.9225 0.4225 5.2825 -0.9375 2.5625 C-4.23407856 2.5625 -6.10114428 3.30583269 -9.125 4.5625 Z " fill="#F0F4F7" transform="translate(55.9375,17.4375)"/>
<path d="M0 0 C42.24 0 84.48 0 128 0 C128 42.24 128 84.48 128 128 C85.76 128 43.52 128 0 128 C0 85.76 0 43.52 0 0 Z M5 10 C3.85532253 12.28935493 3.86963521 13.57227621 3.85955811 16.11714172 C3.85384796 16.97932312 3.84813782 17.84150452 3.84225464 18.72981262 C3.84113678 19.67789291 3.84001892 20.62597321 3.83886719 21.6027832 C3.83390228 22.59966156 3.82893738 23.59653992 3.82382202 24.62362671 C3.80917644 27.93268516 3.80239422 31.24169567 3.796875 34.55078125 C3.79112529 36.84523012 3.78536754 39.13967897 3.77960205 41.43412781 C3.76908509 46.25027694 3.76324705 51.06640935 3.75976562 55.88256836 C3.75428103 62.05659892 3.73025649 68.23040893 3.70179367 74.40437031 C3.68317755 79.14583483 3.67796222 83.88724614 3.67642975 88.62874413 C3.67340012 90.90494174 3.6653612 93.18113835 3.65224457 95.45730019 C3.63520667 98.64138218 3.63705905 101.82492423 3.64355469 105.0090332 C3.6343399 105.9510408 3.62512512 106.8930484 3.6156311 107.86360168 C3.65661229 114.27030291 4.70205006 117.46149931 9.06228638 122.27816772 C13.34553945 124.78863822 17.11980222 124.57496286 22.00341797 124.54931641 C23.00727539 124.55953827 24.01113281 124.56976013 25.04541016 124.58029175 C28.36124575 124.60807375 31.67624941 124.60617117 34.9921875 124.6015625 C37.29998076 124.60933735 39.60777117 124.61800689 41.91555786 124.62753296 C46.75255611 124.64245544 51.58926242 124.64187674 56.42626953 124.63134766 C62.6194422 124.61976213 68.81141785 124.65360951 75.00439262 124.700037 C79.77087368 124.72952857 84.53706707 124.73125286 89.3036232 124.72501755 C91.58655288 124.72604327 93.86949882 124.73650583 96.15233994 124.75664139 C99.34827732 124.78136979 102.54189165 124.7677927 105.73779297 124.74462891 C106.67724762 124.75991638 107.61670227 124.77520386 108.58462524 124.79095459 C114.38169591 124.69827332 117.49461583 123.5824694 121.73187447 119.57929039 C123.94987577 116.81704955 124.12682648 114.20102558 124.14044189 110.80056763 C124.14615204 109.94542572 124.15186218 109.09028381 124.15774536 108.20922852 C124.15886322 107.27409424 124.15998108 106.33895996 124.16113281 105.37548828 C124.16609772 104.38821747 124.17106262 103.40094666 124.17617798 102.38375854 C124.19080203 99.11260282 124.19760171 95.84149557 124.203125 92.5703125 C124.20887585 90.29971312 124.21463359 88.02911375 124.22039795 85.7585144 C124.23090835 80.99542006 124.2367509 76.2323426 124.24023438 71.46923828 C124.24572193 65.36361669 124.26975556 59.25821779 124.29820633 53.15266609 C124.31682144 48.46181585 124.32203769 43.7710194 124.32357025 39.08013535 C124.32659939 36.82905738 124.33463666 34.57798041 124.34775543 32.32693863 C124.36479352 29.17888641 124.36294108 26.03138029 124.35644531 22.88330078 C124.3656601 21.95221497 124.37487488 21.02112915 124.3843689 20.06182861 C124.3431434 13.68991824 123.27420245 10.51226729 118.93771362 5.72183228 C114.65446055 3.21136178 110.88019778 3.42503714 105.99658203 3.45068359 C104.4907959 3.4353508 104.4907959 3.4353508 102.95458984 3.41970825 C99.63875425 3.39192625 96.32375059 3.39382883 93.0078125 3.3984375 C90.70001924 3.39066265 88.39222883 3.38199311 86.08444214 3.37246704 C81.24744389 3.35754456 76.41073758 3.35812326 71.57373047 3.36865234 C65.3805578 3.38023787 59.18858215 3.34639049 52.99560738 3.299963 C48.22912632 3.27047143 43.46293293 3.26874714 38.6963768 3.27498245 C36.41344712 3.27395673 34.13050118 3.26349417 31.84766006 3.24335861 C28.65172268 3.21863021 25.45810835 3.2322073 22.26220703 3.25537109 C21.32275238 3.24008362 20.38329773 3.22479614 19.41537476 3.20904541 C12.90295271 3.31316344 9.26458096 5.01741068 5 10 Z " fill="#294359" transform="translate(0,0)"/>
<path d="M0 0 C2.1462026 0.14029419 4.29196218 0.28738164 6.4375 0.4375 C7.63246094 0.51871094 8.82742187 0.59992188 10.05859375 0.68359375 C13 1 13 1 14 2 C14.36760731 4.32817964 14.70241581 6.6618385 15 9 C21.04829486 9.89604368 26.8894576 10.11269443 33 10 C33.33 7.69 33.66 5.38 34 3 C38.62 3 43.24 3 48 3 C48.495 6.465 48.495 6.465 49 10 C54.94 9.67 60.88 9.34 67 9 C67.33 6.69 67.66 4.38 68 2 C69.87824891 0.12175109 73.03935276 0.60897603 75.5625 0.4375 C77.35880859 0.31181641 77.35880859 0.31181641 79.19140625 0.18359375 C80.11824219 0.12300781 81.04507813 0.06242187 82 0 C82.36181066 6.03017763 81.67698474 9.9416784 77.62890625 14.56640625 C68.24403629 23.5461739 53.76264141 25.38783629 41.3125 25.3125 C39.86774292 25.30512817 39.86774292 25.30512817 38.39379883 25.29760742 C26.56102208 25.10450411 14.08166956 23.81160589 5.15625 15.2265625 C0.67526855 10.21716343 -0.12843097 6.80684144 0 0 Z " fill="#4B8EC0" transform="translate(23,83)"/>
<path d="M0 0 C2.375 1.5 2.375 1.5 4 4 C4.61512432 7.12736105 4.65327071 9.87690757 4 13 C1.33120085 16.31578076 -0.31607564 16.89008359 -4.5 17.5625 C-8 17 -8 17 -10.9375 15 C-13.79117716 10.84919686 -13.7099846 8.9698922 -13 4 C-9.343307 -0.91762162 -5.77832349 -1.5330246 0 0 Z " fill="#F1F3F5" transform="translate(47,57)"/>
<path d="M0 0 C2.375 1.5625 2.375 1.5625 4 4 C4.7099846 8.9698922 4.79117716 10.84919686 1.9375 15 C-1.77807226 17.52975133 -3.5882483 17.7878128 -8 17 C-10.93052231 15.00475077 -12.64521503 13.57163515 -13.4453125 10.02734375 C-13.64297244 6.50240818 -13.298885 4.40194879 -11.1875 1.5625 C-7.23814633 -1.25846691 -4.58583056 -1.21664892 0 0 Z " fill="#F2F4F5" transform="translate(90,57)"/>
<path d="M0 0 C1 1 1 1 1.25 4.375 C1 8 1 8 -0.1875 9.9375 C-2.66049093 11.38718434 -4.17884512 11.42317323 -7 11 C-8.8125 9.875 -8.8125 9.875 -10 8 C-10.39310741 4.85514075 -10.47555213 2.86718329 -8.9375 0.0625 C-5.84787273 -1.63181173 -3.32782582 -0.73951685 0 0 Z " fill="#484749" transform="translate(89,61)"/>
<path d="M0 0 C1.670625 0.37125 1.670625 0.37125 3.375 0.75 C4.77435013 3.54870027 4.62765405 5.65498792 4.375 8.75 C3.1875 10.625 3.1875 10.625 1.375 11.75 C-1.44615488 12.17317323 -2.96450907 12.13718434 -5.4375 10.6875 C-7.29001934 7.66496844 -7.00143703 5.20067281 -6.625 1.75 C-3.625 -0.25 -3.625 -0.25 0 0 Z " fill="#484749" transform="translate(44.625,60.25)"/>
<path d="M0 0 C1.65 0.33 3.3 0.66 5 1 C5 4.63 5 8.26 5 12 C3.35 12.33 1.7 12.66 0 13 C-1 12 -1 12 -1.1328125 9.53125 C-1.13023438 8.5309375 -1.12765625 7.530625 -1.125 6.5 C-1.12757812 5.4996875 -1.13015625 4.499375 -1.1328125 3.46875 C-1 1 -1 1 0 0 Z " fill="#F7FAFC" transform="translate(62,62)"/>
<path d="M0 0 C0.33 0 0.66 0 1 0 C1 2.64 1 5.28 1 8 C-1.64 8 -4.28 8 -7 8 C-6.21625 7.236875 -5.4325 6.47375 -4.625 5.6875 C-1.92742283 3.09108195 -1.92742283 3.09108195 0 0 Z " fill="#000000" transform="translate(127,120)"/>
<path d="M0 0 C2.66666667 2.66666667 5.33333333 5.33333333 8 8 C5.36 8 2.72 8 0 8 C0 5.36 0 2.72 0 0 Z " fill="#000000" transform="translate(0,120)"/>
<path d="M0 0 C2.64 0 5.28 0 8 0 C8 2.64 8 5.28 8 8 C5.33333333 5.33333333 2.66666667 2.66666667 0 0 Z " fill="#000000" transform="translate(120,0)"/>
<path d="M0 0 C2.64 0 5.28 0 8 0 C5.33333333 2.66666667 2.66666667 5.33333333 0 8 C0 5.36 0 2.72 0 0 Z " fill="#000000" transform="translate(0,0)"/>
</svg>
